<svg id="Group_34" data-name="Group 34" xmlns="http://www.w3.org/2000/svg" width="75.61" height="75.61" viewBox="0 0 75.61 75.61">
  <path id="Path_285" data-name="Path 285" d="M540.257-150.338h-.886a2.206,2.206,0,0,1-.994-2.122c.028-5.364.009-10.728.022-16.092a1.276,1.276,0,0,0-.488-1.063c-3.667-3.292-5.115-7.392-3.9-12.173a11.611,11.611,0,0,1,9.34-8.9,28.053,28.053,0,0,1,3.251-.35v-.855q0-16.092,0-32.185c0-1.357.512-1.866,1.875-1.866q24.1,0,48.19,0c1.41,0,1.9.494,1.9,1.917q0,7.345,0,14.69v.822c.343,0,.587-.008.83,0a4.022,4.022,0,0,1,3.886,3.881c.026.762.008,1.525.008,2.288,0,1.271,0,2.542,0,3.87.7,0,1.307-.019,1.917,0a3.976,3.976,0,0,1,3.485,2.118,11.7,11.7,0,0,1,.5,1.124v12.848c-.556.95-1.088,1.244-1.878,1.037-.738-.193-1.074-.775-1.075-1.868q0-2.1,0-4.208c0-2.264,0-4.527,0-6.791,0-.678-.258-1.193-.95-1.28a16.4,16.4,0,0,0-2.005-.017v.955q0,15.354-.013,30.708a5.493,5.493,0,0,1-.315,1.791c-1.215,3.426-2.446,6.847-3.735,10.245a6.627,6.627,0,0,1-1.1,1.474h-.886a7.021,7.021,0,0,1-1.1-1.473c-.731-1.822-1.379-3.678-2.015-5.536a.875.875,0,0,0-1-.684q-19.623.027-39.246.014h-.828c0,1.921-.032,3.74.014,5.558a2.177,2.177,0,0,1-.994,2.121h-.886a10.617,10.617,0,0,1-.978-.761q-1.476-1.44-2.911-2.921c-.506-.523-.969-1.088-1.452-1.635-1.605,1.592-3.044,3.031-4.5,4.452A13.443,13.443,0,0,1,540.257-150.338Zm52.575-10.672c-1.082-1.846-.743-3.772-.746-5.647-.019-12.38.022-24.76-.037-37.139-.012-2.5,1.247-4.257,3.444-4.715.039-.008.069-.06.07-.06v-14.384h-46v.612q0,15.69-.014,31.38a.812.812,0,0,0,.633.889,12.022,12.022,0,0,1,7.634,11.478,11.708,11.708,0,0,1-4.169,8.872,1.614,1.614,0,0,0-.607,1.385c.032,2.165.012,4.332.013,6.5v.83Zm-47.09-8.674a9.184,9.184,0,0,0,9.13-9.179,9.183,9.183,0,0,0-9.176-9.132,9.186,9.186,0,0,0-9.13,9.178A9.187,9.187,0,0,0,545.742-169.684Zm54.565-25.794h-5.225v30.78h5.225Zm-50.252,27.951a12.34,12.34,0,0,1-8.648.022v12.094c.875-.891,1.63-1.662,2.387-2.429,1.773-1.8,2.077-1.795,3.842-.015.767.773,1.542,1.539,2.419,2.414Zm50.284-30.988c0-2.038.017-4.024-.01-6.009a.985.985,0,0,0-1.035-1.031q-1.62-.049-3.242,0a.96.96,0,0,0-1,.981c-.032,2.007-.012,4.015-.012,6.057Zm-.647,36.856h-4.015l1.935,5.3.167-.039Z" transform="translate(-533.592 225.948)" fill="#ae61a5"/>
  <path id="Path_286" data-name="Path 286" d="M692.914-176.783a8.659,8.659,0,0,1-11.952,8.093,1.629,1.629,0,0,0-1.393-.023,8.132,8.132,0,0,1-9.028-1.51,8.3,8.3,0,0,1-2.574-9.043,8.343,8.343,0,0,1,6.939-6.168,7.777,7.777,0,0,1,4.658.583,1.563,1.563,0,0,0,1.393-.017A8.658,8.658,0,0,1,692.914-176.783Zm-9.936,5.551a5.511,5.511,0,0,0,6-2.362,5.8,5.8,0,0,0-.238-6.706,5.36,5.36,0,0,0-5.724-2C685.522-177.79,685.522-175.38,682.977-171.232Zm-5.455.006a9.033,9.033,0,0,1-.008-11.1,5.5,5.5,0,0,0-5.916,2.245,5.788,5.788,0,0,0-.06,6.523A5.545,5.545,0,0,0,677.522-171.226Zm2.736-1.588c2.6-2.566,1.69-6.673-.06-7.9A5.628,5.628,0,0,0,680.258-172.815Z" transform="translate(-641.255 193.729)" fill="#ae61a5"/>
  <path id="Path_287" data-name="Path 287" d="M685.22-71.759H694.6a5.225,5.225,0,0,1,.743.021,1.485,1.485,0,0,1,1.277,1.445,1.49,1.49,0,0,1-1.26,1.536,4.809,4.809,0,0,1-.743.023H675.635c-.174,0-.348.007-.521-.005a1.489,1.489,0,0,1-1.461-1.5,1.483,1.483,0,0,1,1.445-1.514c.222-.016.446-.006.67-.007Z" transform="translate(-646.143 102.15)" fill="#ae61a5"/>
  <path id="Path_288" data-name="Path 288" d="M685.14-35.79q-4.8,0-9.6,0a3.183,3.183,0,0,1-.81-.067,1.472,1.472,0,0,1-1.079-1.529,1.492,1.492,0,0,1,1.239-1.4,3.541,3.541,0,0,1,.594-.024h19.276c.124,0,.248,0,.372,0a1.488,1.488,0,0,1,1.482,1.48,1.467,1.467,0,0,1-1.5,1.533c-1.314.028-2.63.009-3.945.009Z" transform="translate(-646.139 75.698)" fill="#ae61a5"/>
  <path id="Path_289" data-name="Path 289" d="M685.145-2.854q-4.763,0-9.526,0a4.281,4.281,0,0,1-.742-.029,1.488,1.488,0,0,1-1.223-1.493,1.492,1.492,0,0,1,1.24-1.479,3.542,3.542,0,0,1,.594-.024h19.276c.124,0,.248,0,.372,0A1.488,1.488,0,0,1,696.617-4.4a1.468,1.468,0,0,1-1.5,1.534c-1.24.028-2.481.009-3.721.009Z" transform="translate(-646.143 49.254)" fill="#ae61a5"/>
  <path id="Path_290" data-name="Path 290" d="M749.986,27.042c.892,0,1.784-.014,2.676,0a1.508,1.508,0,1,1,.03,3.014q-2.75.03-5.5,0a1.513,1.513,0,0,1-1.589-1.53,1.528,1.528,0,0,1,1.634-1.487C748.152,27.031,749.069,27.042,749.986,27.042Z" transform="translate(-703.839 22.822)" fill="#ae61a5"/>
  <path id="Path_291" data-name="Path 291" d="M582.116-1.791a8.507,8.507,0,0,1-.925,1.731c-.935,1.072-1.981,2.044-2.972,3.067a.723.723,0,0,1-1.2-.023c-.971-1.008-1.974-1.983-2.937-3a2.576,2.576,0,0,1-.2-3.49,2.444,2.444,0,0,1,3.341-.5c.386.254.591.123.906-.066A2.684,2.684,0,0,1,582.116-1.791Z" transform="translate(-565.383 48.028)" fill="#ae61a5"/>
</svg>
