<svg id="Group_36" data-name="Group 36" xmlns="http://www.w3.org/2000/svg" width="77.135" height="77.819" viewBox="0 0 77.135 77.819">
  <g id="Group_35" data-name="Group 35">
    <path id="Path_292" data-name="Path 292" d="M86.916-512.029c1.462.2,2.938.328,4.384.611,13.035,2.554,22.477,9.889,28.294,21.9a35.95,35.95,0,0,1,3.586,17.592c-.677,14.025-6.993,24.81-18.8,32.2a35.454,35.454,0,0,1-21.339,5.44c-14.476-.886-25.307-7.838-32.41-20.581a36.248,36.248,0,0,1-4.409-15.325,5.192,5.192,0,0,0-.128-.655v-4.56a5.19,5.19,0,0,0,.128-.655,36.844,36.844,0,0,1,4.4-15.324c6-10.958,15.111-17.669,27.319-20.035,1.471-.285,2.972-.413,4.459-.614Zm33.74,38.912A36.194,36.194,0,0,0,84.7-509.439a36.194,36.194,0,0,0-36.047,36.3A36.194,36.194,0,0,0,84.6-436.806,36.239,36.239,0,0,0,120.656-473.117Z" transform="translate(-46.089 512.029)" fill="#ae61a5"/>
    <path id="Path_293" data-name="Path 293" d="M253.626-385.509c.2-4.7.344-8.089.508-11.473a1.007,1.007,0,0,0-.512-1.036,6.714,6.714,0,0,1-2.982-4.991,18.738,18.738,0,0,1,1.544-9.47,5.407,5.407,0,0,1,5.349-3.574,5.419,5.419,0,0,1,5.36,3.435,19.586,19.586,0,0,1,1.745,7.95c-.04,2.8-.78,5.249-3.329,6.839a1,1,0,0,0-.264.765c.165,4.113.355,8.224.538,12.336.118,2.658.271,5.315.341,7.974a4.176,4.176,0,0,1-3.622,4.314,4.3,4.3,0,0,1-4.773-2.7,6.634,6.634,0,0,1-.259-2.361C253.374-380.611,253.542-383.719,253.626-385.509Zm2.657-2.032h.006c-.164,3.534-.339,7.068-.484,10.6a1.683,1.683,0,0,0,1.782,1.952,1.7,1.7,0,0,0,1.772-1.965c-.047-1.429-.135-2.857-.2-4.286q-.389-8.5-.772-17a1.416,1.416,0,0,1,.851-1.459,6.91,6.91,0,0,0,1.163-.679c1.388-1.05,1.6-2.588,1.665-4.171a17.887,17.887,0,0,0-1.463-6.942,3.021,3.021,0,0,0-2.992-2.012,3,3,0,0,0-3.03,1.955,18.137,18.137,0,0,0-1.493,7.088c.072,2.119.69,3.9,2.841,4.777a1.4,1.4,0,0,1,.842,1.532Q256.522-392.843,256.283-387.541Z" transform="translate(-209.369 435.763)" fill="#ae61a5"/>
    <path id="Path_294" data-name="Path 294" d="M162.914-388.137c-.182-3.584-.353-7.169-.555-10.753a2.163,2.163,0,0,1,.684-1.82c.925-.885,1.841-1.782,2.7-2.726a1.8,1.8,0,0,0,.445-1.1c.034-3.263.019-6.527.021-9.79a4.341,4.341,0,0,1,.028-.751,1.207,1.207,0,0,1,1.173-1.081c.615-.043,1.23.276,1.238.864.052,4.133.032,8.267-.007,12.4,0,.261-.334.545-.558.774-.912.933-1.857,1.835-2.754,2.783a1.284,1.284,0,0,0-.339.841c.272,5.917.578,11.832.858,17.749a30.577,30.577,0,0,1,.074,4.577,4.17,4.17,0,0,1-4.479,3.674,4.287,4.287,0,0,1-4.054-4.1c-.052-1.249.067-2.507.128-3.76.3-5.991.606-11.981.876-17.974a1.693,1.693,0,0,0-.426-1.1c-.882-.961-1.87-1.825-2.735-2.8a2.339,2.339,0,0,1-.584-1.39c-.047-3.664-.031-7.33-.023-10.995,0-.952.513-1.551,1.274-1.559s1.268.589,1.288,1.534c0,.176,0,.352,0,.527,0,3.188-.017,6.376.022,9.564a1.919,1.919,0,0,0,.486,1.157c.862.944,1.786,1.834,2.706,2.724a2.043,2.043,0,0,1,.642,1.687q-.57,10.865-1.115,21.731a1.825,1.825,0,0,0,1.387,2.11,1.652,1.652,0,0,0,1.927-.93,3.525,3.525,0,0,0,.185-1.391c-.16-3.56-.349-7.119-.529-10.679Z" transform="translate(-132.778 435.856)" fill="#ae61a5"/>
    <path id="Path_295" data-name="Path 295" d="M326.766-388.407a25.641,25.641,0,0,1-7.32,18.456,1.358,1.358,0,0,1-1.986.275,1.286,1.286,0,0,1,.087-1.99,23.041,23.041,0,0,0,5.3-8.485,22.8,22.8,0,0,0-1.9-19.559c-.625-1.081-1.433-2.055-2.142-3.089a1.285,1.285,0,0,1,.2-1.871,1.294,1.294,0,0,1,1.855.342A25.884,25.884,0,0,1,326.766-388.407Z" transform="translate(-262.5 426.835)" fill="#ae61a5"/>
    <path id="Path_296" data-name="Path 296" d="M115.723-398.175a1.3,1.3,0,0,1,1.384,1.808,5.535,5.535,0,0,1-.507.833,22.653,22.653,0,0,0-3.891,15.285,22.376,22.376,0,0,0,5.784,13.125c.286.317.583.625.846.96a1.271,1.271,0,0,1-.074,1.823,1.242,1.242,0,0,1-1.872-.179,40.907,40.907,0,0,1-2.985-3.676,25.014,25.014,0,0,1-4.383-14.39,25.254,25.254,0,0,1,4.833-14.924A3.208,3.208,0,0,1,115.723-398.175Z" transform="translate(-97.157 421.452)" fill="#ae61a5"/>
    <path id="Path_297" data-name="Path 297" d="M198.562-448.867c1.929.276,3.863.523,5.786.84a1.243,1.243,0,0,1,1.138,1.548,1.29,1.29,0,0,1-1.7.929,23.707,23.707,0,0,0-11.453.244c-.675.184-1.333.431-2.008.616a1.233,1.233,0,0,1-1.64-.764,1.262,1.262,0,0,1,.877-1.659,25.128,25.128,0,0,1,7.472-1.544c.5-.025,1,0,1.5,0Z" transform="translate(-159.927 461.698)" fill="#ae61a5"/>
    <path id="Path_298" data-name="Path 298" d="M173.875-409.5c0-1.681-.049-3.364.035-5.04a1.661,1.661,0,0,1,.754-1.151,1.4,1.4,0,0,1,1.224.149,1.508,1.508,0,0,1,.524,1.085c.04,3.336.038,6.672.015,10.009a1.268,1.268,0,0,1-1.327,1.407c-.749-.023-1.215-.53-1.225-1.417-.02-1.681-.006-3.361-.006-5.042Z" transform="translate(-148.145 435.351)" fill="#ae61a5"/>
    <path id="Path_299" data-name="Path 299" d="M195.482-409.682c0,1.681.049,3.364-.035,5.04a1.607,1.607,0,0,1-.75,1.152,1.393,1.393,0,0,1-1.276-.2,2.03,2.03,0,0,1-.482-1.336c-.046-2.307-.023-4.615-.021-6.923,0-.978-.03-1.958.026-2.934a1.278,1.278,0,0,1,1.313-1.274,1.291,1.291,0,0,1,1.225,1.359c.012.2.006.4.006.6q0,2.258,0,4.515Z" transform="translate(-163.361 435.657)" fill="#ae61a5"/>
    <path id="Path_300" data-name="Path 300" d="M221.32-205.939c.874-.05,1.725-.107,2.577-.146.923-.042,1.5.387,1.569,1.141a1.274,1.274,0,0,1-1.351,1.393c-1.877.061-3.758.062-5.635,0a1.251,1.251,0,0,1-1.3-1.43c.081-.725.635-1.135,1.527-1.1C219.587-206.047,220.464-205.987,221.32-205.939Z" transform="translate(-182.741 268.223)" fill="#ae61a5"/>
  </g>
</svg>
