<svg xmlns="http://www.w3.org/2000/svg" width="76.504" height="76.486" viewBox="0 0 76.504 76.486">
  <g id="Group_38" data-name="Group 38" transform="translate(0)">
    <path id="Path_308" data-name="Path 308" d="M225.331-1019.063a20.018,20.018,0,0,1,1.2-3.114,7.955,7.955,0,0,1,6.973-4.042c.763-.031,1.528,0,2.362,0v-7.961c-.641,0-1.272,0-1.9,0-1.478-.009-1.867-.442-1.718-1.907a11.657,11.657,0,0,1,9.872-10.669c.242-.044.481-.1.775-.164v-7.986c-.557,0-1.069.012-1.58,0a.948.948,0,0,1-1.046-1.016,12.429,12.429,0,0,1,4.124-9.87,7.372,7.372,0,0,1,4.947-1.807c.467-.005.934,0,1.472,0,.168-3.165,1.47-5.318,4.866-5.057,2.869.22,3.836,2.314,3.929,4.984h7.935c.166-3.161,1.535-5.206,5-4.985a4.068,4.068,0,0,1,2.078.892,4.584,4.584,0,0,1,1.3,1.766,12.492,12.492,0,0,1,.507,2.4c.414,0,.875-.01,1.335,0,.865.022,1.355.412,1.356,1.062,0,.67-.449,1.026-1.354,1.027-9.214,0-18.428.053-27.641-.023a6.806,6.806,0,0,0-6.613,4.211,9.752,9.752,0,0,0-1.048,4.169c.054.035.114.1.177.108a13.963,13.963,0,0,1,4.66,1.264,5.954,5.954,0,0,0,5.458-.321,8.072,8.072,0,0,1,8.191-.063,5.427,5.427,0,0,0,5.243.015,8.2,8.2,0,0,1,8.395.128,5.344,5.344,0,0,0,4.257.569c1.945-.569,3.866-1.219,5.91-1.87a9.856,9.856,0,0,0-.933-3.613c-.188-.434-.437-.841-.617-1.277a.971.971,0,0,1,.448-1.341.945.945,0,0,1,1.357.386,13,13,0,0,1,1.889,7.341c-.027.636-.478.9-1.07.914-.49.016-.98,0-1.538,0v7.977c.3.068.587.145.875.194a11.671,11.671,0,0,1,9.778,10.909c.073,1.183-.344,1.627-1.56,1.644-.665.01-1.33,0-2.069,0v7.964c.762,0,1.474-.016,2.186,0a7.978,7.978,0,0,1,7.317,4.352,11.334,11.334,0,0,1,.985,3.407c.184,1.083-.289,1.5-1.4,1.5q-9.525.007-19.05.005c-.343,0-.686.03-1.1.049-.033.333-.085.619-.086.905-.008,1.843,0,3.686,0,5.528,0,1.581-.275,1.849-1.885,1.851q-4.183,0-8.367,0c-.317,0-.634.036-1.012.06a13.009,13.009,0,0,0,.384,4.983,13.04,13.04,0,0,0,2.965,5.3c.828.924.819,1.117.014,2.082H254.918c-.809-.959-.824-1.221.039-2.151a11.985,11.985,0,0,0,3.137-6.174c.226-1.3.236-2.639.348-4.024-.537-.034-.854-.07-1.171-.07q-4.184-.007-8.368,0c-1.632,0-1.888-.262-1.889-1.923,0-1.818,0-3.636,0-5.454,0-.287-.052-.573-.085-.906-.416-.019-.759-.049-1.1-.049q-9.451,0-18.9.005a1.755,1.755,0,0,1-1.59-.618Zm63.747-7.161v-7.613c-.835.231-1.6.421-2.349.654a13.721,13.721,0,0,1-9.5-.367,11.563,11.563,0,0,0-8.738-.129,13.429,13.429,0,0,1-9.781.008,11.585,11.585,0,0,0-8.809.14,11.281,11.281,0,0,1-5.464.985c-1.793-.189-3.555-.67-5.331-1.023-.324-.065-.648-.131-.993-.2v7.5c.4.018.714.042,1.033.046.9.009,1.794-.016,2.689.023a.958.958,0,0,1,1,1.068c-.006.639-.394.936-.992.991-.247.023-.5.015-.746.015-2.49,0-4.981-.013-7.471.006a6.147,6.147,0,0,0-5.788,3.977,8.4,8.4,0,0,0-.252,1.015h72.043c-.122-.431-.185-.768-.311-1.079a6.159,6.159,0,0,0-5.98-3.918q-16.7-.005-33.394,0c-.324,0-.716.1-.954-.049a1.945,1.945,0,0,1-.874-.948c-.137-.494.249-.9.764-1.027a4.467,4.467,0,0,1,1.039-.067q13.97,0,27.94,0Zm3.627-10.169a6.913,6.913,0,0,0-.065-.765,9.512,9.512,0,0,0-9.338-7.622q-19.714.017-39.429,0a9.515,9.515,0,0,0-9.344,7.617,7,7,0,0,0-.066.765,3.358,3.358,0,0,0,.634.11,14.9,14.9,0,0,1,5.342.927,12.9,12.9,0,0,0,9.325-.337,12.5,12.5,0,0,1,9.34-.051,12.223,12.223,0,0,0,8.955,0,12.518,12.518,0,0,1,9.342.038,12.967,12.967,0,0,0,9.325.348,14.961,14.961,0,0,1,5.343-.927A3.422,3.422,0,0,0,292.705-1036.392Zm-47.592-10.578h36.916v-7.269a1.759,1.759,0,0,0-.309.026c-.26.084-.524.161-.774.271a8.229,8.229,0,0,1-7.67-.39,5.959,5.959,0,0,0-5.924-.031,7.8,7.8,0,0,1-7.458.033,6.151,6.151,0,0,0-6.129.057,8.079,8.079,0,0,1-7.4.39c-.378-.16-.774-.277-1.255-.447Zm4.062,36.164h28.794v-6.085H249.175ZM269.2-998.358a40.44,40.44,0,0,1-1.951-4.9,41.972,41.972,0,0,1-.725-5.3h-5.865a41.54,41.54,0,0,1-.726,5.278,41.482,41.482,0,0,1-1.953,4.922Zm-11.874-69.309a2.353,2.353,0,0,0-.957-2.632,2.213,2.213,0,0,0-2.571.194,2.206,2.206,0,0,0-.615,2.438Zm16.7-.007a2.281,2.281,0,0,0-.75-2.511,2.2,2.2,0,0,0-2.578-.045,2.275,2.275,0,0,0-.813,2.556Z" transform="translate(-225.331 1072.686)" fill="#ae61a5"/>
    <path id="Path_309" data-name="Path 309" d="M342.188-837.851c-.4,0-.8.028-1.192-.007a.98.98,0,0,1-1-1,.935.935,0,0,1,.888-1.025,19.315,19.315,0,0,1,2.753,0,.912.912,0,0,1,.831,1.058.9.9,0,0,1-.865.948,13.059,13.059,0,0,1-1.415.011Z" transform="translate(-317.106 886.395)" fill="#ae61a5"/>
  </g>
</svg>
