<svg xmlns="http://www.w3.org/2000/svg" width="405.333" height="405.333" viewBox="0 0 405.333 405.333">
  <g id="Group_17" data-name="Group 17" transform="translate(291 -3870.367)" opacity="0.1">
    <path id="Path_269" data-name="Path 269" d="M393.333,359.73a202.768,202.768,0,0,0-373.44-.036l45.777,66.4c6.369-72.165,67.143-128.946,140.934-128.946,70.26,0,128.718,51.474,139.65,118.689v0l54.93,79.668a203.565,203.565,0,0,0-7.851-135.774Z" transform="translate(-294.939 3634.408)" fill="#c2b59b"/>
    <path id="Path_270" data-name="Path 270" d="M358.174,353.97c-6.363,72.165-67.143,128.949-140.934,128.949-70.257,0-128.718-51.477-139.65-118.7L22.663,284.556a202.722,202.722,0,0,0,381.288,135.81Z" transform="translate(-305.575 3731.602)" fill="#c2b59b"/>
  </g>
</svg>
