<svg id="Group_37" data-name="Group 37" xmlns="http://www.w3.org/2000/svg" width="93.672" height="77.715" viewBox="0 0 93.672 77.715">
  <path id="Path_301" data-name="Path 301" d="M839.233-609.533c-1.707-.185-3.418-.342-5.121-.561a33.328,33.328,0,0,1-8.919-2.2,15.886,15.886,0,0,1-2.5-1.36,4.758,4.758,0,0,1-2.223-4.365,66.617,66.617,0,0,1,11.149-36.6,2.706,2.706,0,0,0,.4-1.359c.045-1.845.018-3.691.019-5.537,0-1.46.229-1.683,1.727-1.683,5.6,0,11.2-.015,16.8.017a1.087,1.087,0,0,0,1.279-.918c.888-2.97,2.021-5.875,2.751-8.88a16.9,16.9,0,0,0-.971-10.572c-.114-.276-.466-.633-.721-.644-1.438-.062-2.881-.03-4.479-.03a18.606,18.606,0,0,0,.023,2.877,7.305,7.305,0,0,1-2.925,7.323,26.44,26.44,0,0,0-2.093,2.207,1.029,1.029,0,0,1-1.74,0c-1.544-1.63-3.089-3.261-4.573-4.945a2.247,2.247,0,0,1-.4-1.351c-.042-1.995-.018-3.991-.018-6.1-1.577,0-3.077-.033-4.572.036-.223.011-.505.475-.623.782a18.313,18.313,0,0,0-.3,12.553c.267.817.569,1.622.853,2.434a.971.971,0,0,1-.542,1.373.944.944,0,0,1-1.319-.639c-2.423-5.792-2.743-11.6-.181-17.454a1.6,1.6,0,0,1,1.682-1.115c1.845.038,3.691,0,5.537.015,1.212.007,1.475.272,1.479,1.46.006,2-.031,4,.026,6a2.363,2.363,0,0,0,.53,1.367c1.02,1.189,2.122,2.307,3.292,3.559.916-.98,1.752-1.994,2.713-2.871a3.349,3.349,0,0,0,1.159-2.914c-.1-1.748-.034-3.505-.023-5.259.006-1.02.294-1.326,1.319-1.337,1.969-.02,3.938.007,5.907-.013a1.451,1.451,0,0,1,1.481.992,20.615,20.615,0,0,1,.832,15.191c-.254.789-.5,1.585-.832,2.344a25.829,25.829,0,0,0-1.858,12.07c.093,1.528-.2,1.753-1.74,1.754q-8.537,0-17.073-.007a1.316,1.316,0,0,0-1.295.623,64.258,64.258,0,0,0-10.291,28.8c-.234,2.2-.235,4.42-.361,6.63a2.555,2.555,0,0,0,1.307,2.568c1.416.767,2.906,1.4,4.512,2.155.345-1.72.646-3.186.93-4.654.946-4.886,1.877-9.775,2.845-14.657a2.1,2.1,0,0,1,.643-1.139,1,1,0,0,1,.986.07,1.478,1.478,0,0,1,.371,1.118c-.428,2.482-.921,4.953-1.4,7.426q-1.125,5.79-2.257,11.579c-.034.175-.025.359-.052.813l11.26,1.182v-1.25q0-9.644,0-19.288a6.9,6.9,0,0,1,.011-.83c.073-.6.429-1.06,1.02-.919.376.089.713.541.96.9.13.191.032.538.032.815q0,9.644,0,19.289v1.276L855-612.58c-.328-1.733-.6-3.2-.884-4.669q-1.427-7.327-2.862-14.653c-.041-.211-.078-.424-.1-.638a.942.942,0,0,1,.782-1.163.917.917,0,0,1,1.161.779c.315,1.5.607,3.011.9,4.519q1.4,7.238,2.806,14.477c.034.176.108.344.239.75,1.551-.721,3.069-1.35,4.51-2.125a2.665,2.665,0,0,0,1.257-2.6,65.049,65.049,0,0,0-7.766-30.511c-.145-.271-.3-.537-.447-.806-.338-.618-.519-1.255.228-1.681s1.225.047,1.532.684c1.25,2.6,2.609,5.158,3.7,7.826a66.452,66.452,0,0,1,4.785,24.832,4.4,4.4,0,0,1-1.81,3.565,14.845,14.845,0,0,1-6.69,2.937c-3.038.594-6.128.925-9.2,1.372-.3.044-.6.1-.9.154ZM851.2-661.115H834.108v5.148H851.2Z" transform="translate(-771.167 687.248)" fill="#ae61a5"/>
  <path id="Path_302" data-name="Path 302" d="M646.962-652.143a2.567,2.567,0,0,0-.326.461c-.587,1.609-1.741,2-3.39,1.922-2.854-.137-5.719-.034-8.579-.04-1.371,0-1.722-.491-1.276-1.776.694-2,1.346-4.02,2.12-5.991a8.394,8.394,0,0,0,.547-4.395c-.383-2.7-.582-5.425-.89-8.448-.31.486-.48.746-.644,1.01q-3.172,5.138-6.343,10.277c-.713,1.154-1.05,1.232-2.222.526q-2.212-1.331-4.422-2.663c-1.159-.7-1.243-1.006-.56-2.129q6.875-11.3,13.769-22.591a3,3,0,0,1,1.123-1.016c1.356-.718,2.794-1.287,4.124-2.047a8.2,8.2,0,0,1,5.106-1.143,4.221,4.221,0,0,0,.922,0,16.689,16.689,0,0,1,10.386,2.3,9.259,9.259,0,0,1,3.687,3.377c4.177,7.025,8.47,13.982,12.72,20.964.792,1.3.726,1.571-.551,2.338-1.5.9-3,1.807-4.507,2.7-.976.578-1.37.486-1.96-.468q-3.179-5.134-6.343-10.277c-.19-.308-.39-.61-.718-1.12-.2,1.872-.386,3.527-.56,5.183s-.361,3.3-.493,4.955a3.37,3.37,0,0,0,.188,1.338c.839,2.406,1.717,4.8,2.578,7.2.522,1.452.2,1.9-1.376,1.9-3.106,0-6.214-.042-9.319.025a1.947,1.947,0,0,1-2.108-1.232A10.6,10.6,0,0,0,646.962-652.143Zm8.816-33.654c-.129.274-.278.573-.414.877-2.427,5.442-4.84,10.89-7.3,16.317a2,2,0,0,1-1.1,1.037c-.7.188-.939-.5-1.181-1.044q-3.669-8.2-7.344-16.4c-.12-.268-.259-.528-.374-.762a3.462,3.462,0,0,0-2.209,1.776q-6.167,10.225-12.4,20.411c-.155.255-.288.523-.466.849l3.692,2.2c2.708-4.391,5.372-8.7,8.027-13.023.338-.55.671-1.075,1.436-.854.711.206.724.819.785,1.412.342,3.334.627,6.675,1.066,10a11.485,11.485,0,0,1-.693,6.474c-.666,1.473-1.1,3.049-1.692,4.718a53.546,53.546,0,0,1,5.894.045c2.164.245,3.589-.4,4.311-2.478a1.123,1.123,0,0,1,.143-.236c.6-.9,1.368-.92,1.95-.022a15.18,15.18,0,0,1,1.032,1.745,1.532,1.532,0,0,0,1.656.969c2.182-.068,4.368-.023,6.552-.023h1.1c-.164-.477-.269-.792-.381-1.1-.686-1.907-1.386-3.81-2.052-5.724a3.057,3.057,0,0,1-.2-1.251c.435-4.406.9-8.808,1.359-13.212.061-.594.1-1.195.861-1.335.737-.135,1.028.382,1.342.891q3.746,6.086,7.5,12.166c.173.28.361.551.555.845l3.684-2.224c-.222-.368-.378-.631-.537-.892-4.123-6.774-8.261-13.539-12.352-20.332A3.531,3.531,0,0,0,655.779-685.8Zm-8.84,14.83,7-15.724a8.042,8.042,0,0,0-5.107-1.506,19.647,19.647,0,0,1-3.96,0c-1.884-.2-3.377.647-4.971,1.5Z" transform="translate(-620.545 690.287)" fill="#ae61a5"/>
  <path id="Path_303" data-name="Path 303" d="M714.249-509.013c-.174,1.578-.357,3.154-.519,4.733q-.867,8.439-1.722,16.878c-.009.092-.025.183-.037.274-.09.656-.4,1.148-1.121,1.074s-.941-.6-.875-1.271c.16-1.621.311-3.243.478-4.864q.983-9.539,1.974-19.077c.283-2.721.582-5.44.857-8.161.066-.653.275-1.176,1.017-1.175.791,0,.993.569,1.063,1.245q1.637,15.867,3.285,31.734c.013.122.024.245.031.368.035.689-.261,1.17-.967,1.2-.66.032-.984-.408-1.049-1.045q-.554-5.365-1.109-10.731-.579-5.588-1.158-11.176Z" transform="translate(-687.913 562.445)" fill="#ae61a5"/>
  <path id="Path_304" data-name="Path 304" d="M769.049-497.126q0,7.38,0,14.759c0,.276.09.632-.045.812-.25.332-.618.743-.971.778-.292.029-.705-.385-.927-.7-.15-.213-.076-.594-.076-.9q0-14.805,0-29.611c0-.246-.087-.567.034-.722.272-.347.65-.842.986-.842s.7.5.972.851c.12.157.03.477.03.723Q769.049-504.552,769.049-497.126Z" transform="translate(-730.882 557.134)" fill="#ae61a5"/>
  <path id="Path_305" data-name="Path 305" d="M681.731-497.022q0,7.333,0,14.667c0,.307.09.686-.054.9-.225.34-.594.751-.942.792-.285.033-.713-.375-.917-.69a2,2,0,0,1-.095-.99q-.006-14.713,0-29.426c0-.276-.085-.632.053-.811.264-.346.666-.824,1-.814s.723.512.917.887a2.606,2.606,0,0,1,.042,1.091Q681.731-504.218,681.731-497.022Z" transform="translate(-665.108 557.014)" fill="#ae61a5"/>
  <path id="Path_306" data-name="Path 306" d="M724.446-564.5a1.452,1.452,0,0,1-1.5,1.508,1.5,1.5,0,0,1-1.5-1.43,1.532,1.532,0,0,1,1.469-1.568A1.491,1.491,0,0,1,724.446-564.5Z" transform="translate(-696.563 596.639)" fill="#ae61a5"/>
  <path id="Path_307" data-name="Path 307" d="M722.969-587.609a1.517,1.517,0,0,1-1.521-1.515,1.553,1.553,0,0,1,1.543-1.5,1.505,1.505,0,0,1,1.457,1.481A1.478,1.478,0,0,1,722.969-587.609Z" transform="translate(-696.566 615.204)" fill="#ae61a5"/>
</svg>
