<svg xmlns="http://www.w3.org/2000/svg" width="75.61" height="75.61" viewBox="0 0 75.61 75.61">
  <g id="Group_18" data-name="Group 18" transform="translate(0)">
    <path id="Path_273" data-name="Path 273" d="M-382.065,290.014c-.246,1.4-.434,2.82-.748,4.207A25.958,25.958,0,0,1-403.24,313.6a25.687,25.687,0,0,1-26.649-11.859.986.986,0,0,0-1.04-.456,25.423,25.423,0,0,1-19.761-8.208,25.95,25.95,0,0,1-.6-34.757c1.174-1.319,2.5-2.5,3.8-3.777l-3.7-1.457c-.549-.216-1.1-.422-1.646-.649a5.527,5.527,0,0,1-3.2-6.936,5.508,5.508,0,0,1,6.774-3.5c.139.039.276.089.457.149.1-.187.194-.349.274-.519a5.484,5.484,0,0,1,7.006-2.852,5.519,5.519,0,0,1,3.2,6.87c-.471,1.479-1,2.939-1.507,4.408-.062.182-.112.368-.182.6,1.259-.29,2.457-.619,3.675-.838a25.7,25.7,0,0,1,26.378,11.7,1.168,1.168,0,0,0,1.166.643,32.68,32.68,0,0,1,3.757.143c1.24.127,2.466.394,3.784.614-.076-.232-.136-.453-.219-.664-.57-1.444-1.174-2.876-1.711-4.332a5.44,5.44,0,0,1,2.8-6.962,5.573,5.573,0,0,1,7.252,2.557c.067.129.137.258.221.416a5.532,5.532,0,0,1,4.4-.054,5.158,5.158,0,0,1,3.322,4.832,5.214,5.214,0,0,1-3,5.194c-1.759.875-3.579,1.629-5.478,2.485.267.2.472.356.68.509a25.782,25.782,0,0,1,10.808,18.687,5.11,5.11,0,0,0,.128.572Zm-38.747,8.991c4.588,5.868,13.409,7.742,20.326,4.3a17,17,0,0,0,8.918-19.463c-1.792-6.865-8.784-12.849-14.657-12.542a.494.494,0,0,0-.035.138,2.874,2.874,0,0,0,.033.294,25.9,25.9,0,0,1-1.413,12.817,1.483,1.483,0,0,1-1.96,1.058c-.832-.318-1.08-1.089-.828-2.081.509-2,1.066-4,1.377-6.039a17.823,17.823,0,0,0-.277-6.329l-2.938.551c.038.38.059.672.1.961a20.664,20.664,0,0,1-.161,6.34c-1.832,10.4-12.367,17.831-22.728,16.006a19.915,19.915,0,0,1-16.294-23.158,19.869,19.869,0,0,1,24.273-15.842,19.8,19.8,0,0,1,10.748,6.889c.151.186.443.431.615.394.954-.2,1.891-.487,2.873-.755-.133-.2-.235-.369-.347-.528a22.671,22.671,0,0,0-29.962-6.612,22.8,22.8,0,0,0-11.317,23.356,22.859,22.859,0,0,0,32.44,17.335,41.7,41.7,0,0,0,4.213-2.57,1.5,1.5,0,0,1,1.848-.045,1.3,1.3,0,0,1,.506,1.575,2.117,2.117,0,0,1-.753.955C-417.716,297.03-419.251,298-420.812,299.005Zm-12.659-6.831a25.838,25.838,0,0,1,2.72-16.271,25.852,25.852,0,0,1,11.861-11.341,16.723,16.723,0,0,0-19.329-4.9,17.087,17.087,0,0,0-10.258,18.6A16.862,16.862,0,0,0-433.471,292.174Zm6.606,8.716a22.679,22.679,0,0,0,28.281,8.178,22.994,22.994,0,0,0,12.089-29.091,22.8,22.8,0,0,0-28.2-13.817,23.051,23.051,0,0,0-15.692,26.129l2.844-.5c-.072-1.45-.229-2.783-.178-4.107a22.388,22.388,0,0,1,.489-4.031A19.941,19.941,0,0,1-403.7,268.63a19.89,19.89,0,0,1,15.3,22.941,19.873,19.873,0,0,1-22.9,16.139,19.728,19.728,0,0,1-12.168-7.23.85.85,0,0,0-.635-.332C-425.029,300.354-425.942,300.634-426.865,300.889Zm11.678-28.062c-7.22,3.284-10.719,11.637-9.326,17.757A16.759,16.759,0,0,0-415.187,272.827ZM-450.9,244.681a2.685,2.685,0,0,0-2.441,2.1,2.6,2.6,0,0,0,1.636,2.911c2.3.933,4.616,1.819,6.924,2.729.556.219.952.107,1.16-.5.826-2.4,1.692-4.785,2.475-7.2a2.511,2.511,0,0,0-1.79-3.288,2.553,2.553,0,0,0-3.093,2.022,2.307,2.307,0,0,1-3.49,1.689C-449.969,244.954-450.444,244.833-450.9,244.681Zm62.79,14.408a2.488,2.488,0,0,0-3.776-2.288,2.406,2.406,0,0,1-3.773-1.532,2.483,2.483,0,0,0-3.251-1.724,2.479,2.479,0,0,0-1.563,3.218c.912,2.419,1.907,4.806,2.869,7.206a.7.7,0,0,0,1.058.446c2.331-1.045,4.672-2.068,6.986-3.147A2.456,2.456,0,0,0-388.115,259.089Z" transform="translate(457.675 -238.399)" fill="#ae61a5"/>
    <path id="Path_274" data-name="Path 274" d="M-234.8,492.815a1.5,1.5,0,0,1,1.477-1.509,1.539,1.539,0,0,1,1.52,1.484,1.522,1.522,0,0,1-1.532,1.541A1.487,1.487,0,0,1-234.8,492.815Z" transform="translate(278.725 -441.361)" fill="#ae61a5"/>
  </g>
</svg>
